<?xml version="1.0" standalone="no"?><svg xmlns="http://www.w3.org/2000/svg" viewBox="0 0 1440 320"><path fill="#ffd166" fill-opacity="1" d="M0,192L6.2,202.7C12.3,213,25,235,37,218.7C49.2,203,62,149,74,117.3C86.2,85,98,75,111,96C123.1,117,135,171,148,181.3C160,192,172,160,185,133.3C196.9,107,209,85,222,96C233.8,107,246,149,258,144C270.8,139,283,85,295,69.3C307.7,53,320,75,332,85.3C344.6,96,357,96,369,85.3C381.5,75,394,53,406,64C418.5,75,431,117,443,144C455.4,171,468,181,480,197.3C492.3,213,505,235,517,245.3C529.2,256,542,256,554,224C566.2,192,578,128,591,106.7C603.1,85,615,107,628,106.7C640,107,652,85,665,90.7C676.9,96,689,128,702,165.3C713.8,203,726,245,738,261.3C750.8,277,763,267,775,272C787.7,277,800,299,812,293.3C824.6,288,837,256,849,234.7C861.5,213,874,203,886,165.3C898.5,128,911,64,923,37.3C935.4,11,948,21,960,32C972.3,43,985,53,997,74.7C1009.2,96,1022,128,1034,144C1046.2,160,1058,160,1071,149.3C1083.1,139,1095,117,1108,101.3C1120,85,1132,75,1145,112C1156.9,149,1169,235,1182,240C1193.8,245,1206,171,1218,144C1230.8,117,1243,139,1255,176C1267.7,213,1280,267,1292,288C1304.6,309,1317,299,1329,256C1341.5,213,1354,139,1366,117.3C1378.5,96,1391,128,1403,128C1415.4,128,1428,96,1434,80L1440,64L1440,320L1433.8,320C1427.7,320,1415,320,1403,320C1390.8,320,1378,320,1366,320C1353.8,320,1342,320,1329,320C1316.9,320,1305,320,1292,320C1280,320,1268,320,1255,320C1243.1,320,1231,320,1218,320C1206.2,320,1194,320,1182,320C1169.2,320,1157,320,1145,320C1132.3,320,1120,320,1108,320C1095.4,320,1083,320,1071,320C1058.5,320,1046,320,1034,320C1021.5,320,1009,320,997,320C984.6,320,972,320,960,320C947.7,320,935,320,923,320C910.8,320,898,320,886,320C873.8,320,862,320,849,320C836.9,320,825,320,812,320C800,320,788,320,775,320C763.1,320,751,320,738,320C726.2,320,714,320,702,320C689.2,320,677,320,665,320C652.3,320,640,320,628,320C615.4,320,603,320,591,320C578.5,320,566,320,554,320C541.5,320,529,320,517,320C504.6,320,492,320,480,320C467.7,320,455,320,443,320C430.8,320,418,320,406,320C393.8,320,382,320,369,320C356.9,320,345,320,332,320C320,320,308,320,295,320C283.1,320,271,320,258,320C246.2,320,234,320,222,320C209.2,320,197,320,185,320C172.3,320,160,320,148,320C135.4,320,123,320,111,320C98.5,320,86,320,74,320C61.5,320,49,320,37,320C24.6,320,12,320,6,320L0,320Z"></path></svg>